<svg width="675" height="447" viewBox="0 0 675 447" fill="none" xmlns="http://www.w3.org/2000/svg">
<g clip-path="url(#clip0_186_10316)">
<path d="M341.95 125.634C335.931 115.707 328.799 105.107 317.63 101.866C304.696 98.1118 291.409 105.569 280.138 112.928C246.433 134.936 213.975 158.786 182.911 184.369L182.945 184.755C207.129 183.091 231.313 181.428 255.497 179.765C272.97 178.563 291.044 177.196 306.485 168.952C312.344 165.824 318.056 161.646 324.696 161.355C332.945 160.993 340.138 166.739 345.79 172.741C379.227 208.25 388.903 262.552 426.416 293.749C402.761 235.572 374.517 179.357 341.95 125.634Z" fill="#F2F2F2"/>
<path d="M547.48 426.814C543.782 422.158 542.272 421.067 538.624 416.368C508.926 378.062 481.013 338.463 454.884 297.57C437.136 269.797 420.268 241.49 404.28 212.65C396.668 198.94 389.266 185.121 382.071 171.195C376.489 160.397 371.031 149.535 365.698 138.608C364.172 135.487 362.69 132.352 361.216 129.209C357.741 121.819 354.331 114.394 350.669 107.104C346.496 98.7959 341.417 90.0858 333.755 84.504C330.268 81.8594 326.099 80.2593 321.734 79.8907C315.496 79.4889 309.741 82.0574 304.331 84.8627C264.749 105.447 227.692 131.254 194.174 160.62C160.571 190.052 130.535 223.303 104.678 259.695C103.887 260.821 102.017 259.745 102.815 258.611C105.959 254.177 109.165 249.791 112.434 245.453C153.076 191.547 202.909 145.191 259.655 108.503C269.202 102.333 278.929 96.4521 288.835 90.8607C293.828 88.041 298.842 85.2573 303.943 82.6457C308.943 80.0844 314.252 77.7813 319.964 77.6952C339.403 77.3939 349.468 99.3483 356.381 114.121C358.554 118.77 360.753 123.405 362.978 128.025C371.388 145.567 380.122 162.949 389.179 180.171C394.769 190.804 400.481 201.374 406.316 211.883C424.474 244.606 443.773 276.667 464.215 308.066C491.294 349.658 518.157 386.399 549.005 425.293C549.854 426.369 548.336 427.904 547.48 426.814Z" fill="#E4E4E4"/>
<path d="M192.253 149.779C191.123 148.523 190.001 147.268 188.864 146.012C179.9 136.125 170.282 126.354 157.973 120.686C152.103 117.898 145.696 116.417 139.196 116.345C132.476 116.366 125.908 118.124 119.7 120.585C116.765 121.755 113.894 123.082 111.067 124.495C107.836 126.117 104.664 127.846 101.506 129.589C95.5775 132.861 89.7263 136.276 83.952 139.835C72.4627 146.916 61.3333 154.538 50.5637 162.7C44.9808 166.933 39.5132 171.305 34.1607 175.816C29.1824 180.006 24.3048 184.308 19.5279 188.723C18.5064 189.663 16.9811 188.142 18.0026 187.202C19.2616 186.032 20.535 184.87 21.8084 183.722C25.4055 180.479 29.0602 177.298 32.7725 174.18C39.542 168.483 46.4867 163.006 53.6068 157.75C64.6787 149.571 76.1318 141.946 87.966 134.877C93.8798 131.347 99.875 127.966 105.951 124.732C107.786 123.756 109.642 122.802 111.52 121.898C115.78 119.755 120.207 117.958 124.757 116.524C131.203 114.445 138.022 113.777 144.75 114.566C151.246 115.508 157.505 117.667 163.196 120.93C175.282 127.667 184.656 138.084 193.778 148.251C194.699 149.284 193.181 150.812 192.253 149.779Z" fill="#E4E4E4"/>
<path d="M439.893 252.231L468.855 241.667L483.234 236.422C487.917 234.714 492.589 232.769 497.431 231.546C501.638 230.348 506.105 230.404 510.28 231.709C514.003 233.084 517.412 235.191 520.302 237.905C523.255 240.617 526.003 243.544 528.522 246.66C531.653 250.412 534.737 254.204 537.836 257.983C550.623 273.578 563.326 289.242 575.946 304.973C588.566 320.704 601.101 336.502 613.552 352.366C626.033 368.27 638.429 384.239 650.738 400.276C652.246 402.24 653.753 404.206 655.258 406.172C656.09 407.259 657.965 406.188 657.122 405.086C644.722 388.888 632.235 372.757 619.661 356.692C607.057 340.589 594.366 324.553 581.587 308.587C568.809 292.62 555.945 276.723 542.994 260.895C539.767 256.952 536.536 253.013 533.299 249.078C530.568 245.759 527.868 242.405 524.873 239.315C519.375 233.645 512.507 228.634 504.285 228.498C499.451 228.418 494.773 229.948 490.282 231.568C485.44 233.315 480.61 235.095 475.775 236.858L446.611 247.496L439.32 250.156C438.026 250.628 438.585 252.709 439.893 252.231Z" fill="#E4E4E4"/>
<path d="M154.161 133.126C139.444 125.583 120.596 127.06 107.072 136.485C132.868 140.923 158.383 146.862 183.484 154.271C173.061 148.179 164.907 138.634 154.161 133.126Z" fill="#F2F2F2"/>
<path d="M106.927 136.458L104.094 138.755C105.052 137.951 106.048 137.198 107.072 136.484C107.023 136.476 106.975 136.467 106.927 136.458Z" fill="#F2F2F2"/>
<path d="M519.212 252.337C516.361 248.876 513.278 245.252 509.014 243.846L505.033 244.003C535.339 297.409 576.269 344.075 625.312 381.137C589.945 338.203 554.578 295.27 519.212 252.337Z" fill="#F2F2F2"/>
<path d="M271.646 223.787C273.488 230.462 277.639 236.273 283.363 240.19C285.576 241.693 288.195 243.134 288.952 245.695C289.35 247.328 289.105 249.051 288.266 250.509C287.429 251.947 286.411 253.273 285.236 254.454L285.129 254.855C279.637 251.609 274.412 247.503 271.378 241.901C268.344 236.299 267.92 228.957 271.646 223.787Z" fill="#F2F2F2"/>
<path d="M454.496 382.662C456.338 389.337 460.489 395.147 466.213 399.065C468.426 400.567 471.045 402.009 471.802 404.57C472.2 406.203 471.955 407.926 471.116 409.383C470.279 410.822 469.261 412.148 468.086 413.329L467.979 413.73C462.487 410.484 457.262 406.378 454.228 400.776C451.194 395.174 450.771 387.832 454.496 382.662Z" fill="#F2F2F2"/>
<path d="M89.5804 371.705C91.4227 378.38 95.5733 384.19 101.298 388.108C103.511 389.61 106.129 391.052 106.886 393.613C107.285 395.246 107.039 396.969 106.201 398.426C105.364 399.865 104.346 401.191 103.171 402.372L103.064 402.773C97.5714 399.527 92.3464 395.421 89.3127 389.819C86.2789 384.217 85.8553 376.875 89.5804 371.705Z" fill="#F2F2F2"/>
<path d="M509.507 79.8287C531.611 79.8287 549.53 61.9584 549.53 39.9143C549.53 17.8703 531.611 0 509.507 0C487.403 0 469.484 17.8703 469.484 39.9143C469.484 61.9584 487.403 79.8287 509.507 79.8287Z" fill="#FFEB82"/>
<path d="M581.733 9.29017C562.336 6.67543 540.192 17.1311 535.164 35.9964C533.897 32.6422 531.594 29.7764 528.587 27.8132C525.58 25.85 522.025 24.891 518.435 25.0746C514.846 25.2583 511.408 26.5752 508.618 28.8351C505.829 31.095 503.832 34.1808 502.916 37.6468L505.136 39.2329C546.703 48.1974 589.731 48.0034 631.215 38.6644C617.723 24.5231 601.13 11.9049 581.733 9.29017Z" fill="#F0F0F0"/>
<path d="M498.548 62.5094C479.151 59.8947 457.007 70.3504 451.979 89.2157C450.712 85.8614 448.409 82.9957 445.402 81.0325C442.395 79.0692 438.84 78.1102 435.25 78.2939C431.661 78.4776 428.223 79.7945 425.433 82.0543C422.644 84.3142 420.646 87.4 419.73 90.866L421.951 92.4521C463.518 101.417 506.546 101.223 548.03 91.8837C534.538 77.7423 517.945 65.1241 498.548 62.5094Z" fill="#F0F0F0"/>
<path d="M667.843 72.5722C667.763 72.5723 667.683 72.56 667.606 72.5355C460.109 7.09306 277.23 15.6508 160.351 34.3538C144.445 36.8981 128.496 39.8368 112.948 43.0889C108.978 43.9181 104.86 44.807 100.708 45.7326C95.7493 46.8339 90.8564 47.9681 86.1647 49.1023C84.1384 49.5808 82.1517 50.063 80.2046 50.5491C77.2552 51.2752 74.2626 52.0318 71.0545 52.8634C67.4698 53.7851 63.8276 54.7519 60.2268 55.7371C60.2137 55.7417 60.2002 55.7456 60.1866 55.7486L60.187 55.7494C56.1199 56.8568 52.0742 57.9964 48.1619 59.1344C46.0444 59.7443 43.9997 60.3458 42.0412 60.9397C41.8225 61 41.6286 61.0581 41.432 61.1178L41.0112 61.2454C40.7675 61.3195 40.5269 61.3921 40.2863 61.4609L40.2709 61.4655L40.2713 61.4663L39.6345 61.6635C38.875 61.8928 38.1339 62.1167 37.4051 62.3399C18.1431 68.2616 7.55417 72.4744 7.44956 72.5157C7.3539 72.5539 7.25163 72.573 7.14858 72.5718C7.04553 72.5706 6.94372 72.5492 6.84896 72.5088C6.75421 72.4684 6.66836 72.4098 6.59632 72.3363C6.52429 72.2627 6.46748 72.1758 6.42913 72.0804C6.39079 71.985 6.37167 71.883 6.37285 71.7802C6.37404 71.6775 6.3955 71.5759 6.43603 71.4814C6.47656 71.3869 6.53535 71.3013 6.60905 71.2295C6.68276 71.1576 6.76992 71.101 6.86558 71.0628C6.97096 71.0215 17.6116 66.7873 36.9437 60.8434C37.6752 60.6195 38.4182 60.3955 39.18 60.1655L39.7716 59.9821C39.7919 59.9744 39.8123 59.9683 39.8329 59.9622C40.0724 59.8942 40.3115 59.8216 40.5545 59.7482L40.976 59.6206C41.186 59.5571 41.3929 59.4944 41.6048 59.4364C43.5498 58.8463 45.6014 58.2433 47.7243 57.6311C51.6381 56.4923 55.6876 55.3528 59.7578 54.2438C59.7705 54.2392 59.7835 54.2361 59.7962 54.2323C63.4096 53.2441 67.0652 52.2726 70.6614 51.3479C73.8744 50.5155 76.8728 49.7574 79.8272 49.0298C81.7826 48.5444 83.7731 48.0611 85.7987 47.5799C90.4958 46.4442 95.3987 45.3084 100.366 44.2048C104.525 43.2785 108.65 42.3873 112.626 41.5573C128.198 38.2999 144.172 35.3566 160.102 32.8084C277.149 14.0787 460.29 5.50714 668.079 71.0436C668.258 71.0998 668.41 71.218 668.509 71.3767C668.608 71.5354 668.647 71.7241 668.618 71.9088C668.59 72.0935 668.496 72.2619 668.354 72.3836C668.211 72.5053 668.03 72.5722 667.843 72.5722Z" fill="#CCCCCC"/>
<path d="M206.384 328.581C206.112 327.789 205.655 327.072 205.05 326.492C204.827 326.285 204.585 326.099 204.328 325.936C202.28 324.574 199.219 324.269 197.273 325.936C197.077 326.105 196.896 326.291 196.732 326.492C196.151 327.204 195.554 327.9 194.942 328.581C193.938 329.724 192.91 330.827 191.835 331.9C191.529 332.197 191.223 332.502 190.909 332.8C190.728 332.98 190.548 333.152 190.367 333.324C189.677 333.981 188.97 334.615 188.256 335.241C187.879 335.578 187.503 335.907 187.118 336.228C186.545 336.705 185.972 337.182 185.392 337.644C185.337 337.683 185.282 337.722 185.227 337.769C185.211 337.777 185.203 337.793 185.188 337.801C185.18 337.801 185.172 337.801 185.164 337.816C185.143 337.825 185.124 337.838 185.109 337.855C184.937 337.973 184.819 338.051 184.733 338.122C184.764 338.106 184.795 338.082 184.827 338.067C184.685 338.176 184.536 338.286 184.395 338.396C183.022 339.405 181.617 340.376 180.181 341.283C176.628 343.551 172.896 345.527 169.022 347.192C168.763 347.294 168.496 347.404 168.229 347.505C158.086 351.65 147.082 353.267 136.171 352.217C135.057 352.131 133.943 352.013 132.828 351.865C131.541 351.677 130.262 351.45 128.991 351.192C124.151 350.229 119.415 348.803 114.849 346.934C109.138 344.326 103.706 341.148 98.6361 337.449C97.8513 336.893 97.0587 336.337 96.2661 335.797C97.1686 333.59 98.0553 331.383 98.9186 329.16C99.3502 328.088 99.7661 327.016 100.174 325.936C103.384 317.617 106.397 309.219 109.285 300.79C112.205 292.251 114.959 283.663 117.549 275.026C117.816 274.149 118.075 273.273 118.326 272.396C119.683 267.833 120.986 263.26 122.234 258.676C122.352 258.23 122.477 257.792 122.587 257.346C122.948 256.031 123.301 254.716 123.647 253.401C124.431 250.435 122.658 246.89 119.534 246.178C118.031 245.793 116.436 246.006 115.086 246.771C113.736 247.536 112.737 248.793 112.299 250.279C111.961 251.547 111.624 252.807 111.279 254.074C109.623 260.202 107.881 266.31 106.052 272.396C105.785 273.273 105.518 274.149 105.252 275.026C101.218 288.283 96.7892 301.408 91.9656 314.4C91.3848 315.973 90.7963 317.541 90.1998 319.104C89.9095 319.871 89.6191 320.638 89.3209 321.405C88.748 322.915 88.1595 324.425 87.5709 325.936C87.2334 326.82 86.8881 327.705 86.5429 328.581C86.3153 329.137 86.0955 329.693 85.8758 330.24C83.6383 329.439 81.3201 328.883 78.962 328.581L78.5854 328.534C76.7572 328.315 74.9083 328.331 73.0841 328.581C70.354 328.899 67.7272 329.811 65.3893 331.253C63.0515 332.694 61.0597 334.63 59.5548 336.924C55.8115 342.802 55.8586 351.207 61.1087 356.2C66.5157 361.342 74.7008 361.303 81.0652 358.087C84.4379 356.267 87.2818 353.609 89.3209 350.37C90.1021 349.196 90.8199 347.981 91.4712 346.731C91.636 346.84 91.8008 346.95 91.9656 347.067C92.5934 347.505 93.2212 347.951 93.8412 348.39C97.4534 351 101.26 353.331 105.228 355.363C113.76 359.593 122.944 362.363 132.397 363.557C132.609 363.581 132.813 363.612 133.024 363.635C134.068 363.769 135.12 363.87 136.171 363.956C151.256 365.09 166.36 362.011 179.789 355.066C180.926 354.479 182.054 353.863 183.171 353.219C184.905 352.217 186.6 351.152 188.256 350.025C189.159 349.415 190.038 348.797 190.909 348.147C194.715 345.351 198.263 342.221 201.511 338.795C202.743 337.503 203.923 336.17 205.05 334.795C206.116 333.671 206.731 332.194 206.777 330.647C206.77 329.941 206.638 329.241 206.384 328.581ZM76.4351 347.224C76.5999 347.106 76.7647 346.981 76.9217 346.856C76.8746 346.973 76.647 347.106 76.4351 347.224ZM78.9542 344.696C78.7737 344.899 78.6089 345.103 78.4284 345.306C77.8793 345.919 77.2894 346.494 76.6627 347.028C76.5763 347.106 76.4822 347.184 76.388 347.255C76.387 347.255 76.3859 347.255 76.385 347.255C76.384 347.256 76.3832 347.256 76.3824 347.257C76.3817 347.258 76.3811 347.259 76.3807 347.26C76.3803 347.261 76.3801 347.262 76.3802 347.263C76.2668 347.313 76.1567 347.371 76.0505 347.435C75.7131 347.638 75.3678 347.826 75.0147 347.998C74.3232 348.252 73.6119 348.449 72.888 348.585C72.3317 348.626 71.7734 348.631 71.2164 348.601H71.2007C70.8163 348.516 70.4366 348.411 70.0628 348.288C69.8745 348.194 69.694 348.085 69.5135 347.975C69.4429 347.912 69.38 347.85 69.3408 347.811C69.2642 347.741 69.1933 347.665 69.129 347.584C69.129 347.583 69.1288 347.582 69.1284 347.581C69.128 347.58 69.1275 347.579 69.1268 347.578C69.126 347.577 69.1251 347.577 69.1242 347.576C69.1232 347.576 69.1222 347.576 69.1211 347.576C69.0348 347.419 68.9406 347.263 68.8543 347.106C68.8499 347.102 68.847 347.097 68.8465 347.091C68.7837 346.895 68.7288 346.691 68.6817 346.488C68.6647 346.131 68.6673 345.773 68.6895 345.416C68.7948 344.916 68.9365 344.424 69.1133 343.944C69.2722 343.604 69.4531 343.275 69.6548 342.958C69.6705 342.927 69.749 342.802 69.8353 342.661C69.8431 342.653 69.8431 342.653 69.8431 342.645C69.9608 342.512 70.0786 342.371 70.2041 342.246C70.416 342.011 70.6436 341.808 70.8712 341.596C71.3138 341.308 71.7723 341.044 72.2445 340.806C72.9937 340.541 73.7625 340.334 74.5439 340.188C75.6961 340.096 76.8543 340.107 78.0047 340.219C79.0943 340.408 80.1694 340.672 81.2222 341.009C80.5841 342.244 79.8577 343.432 79.0484 344.563C79.017 344.61 78.9856 344.657 78.9542 344.696ZM70.2276 342.121C70.1585 342.231 70.0769 342.334 69.9843 342.426C70.0466 342.311 70.129 342.207 70.2276 342.121Z" fill="white"/>
<path d="M182.794 248.651C182.723 251.108 182.653 253.566 182.582 256.023C182.433 261.478 182.279 266.936 182.119 272.396C181.954 278.54 181.782 284.681 181.601 290.819C181.515 293.989 181.426 297.158 181.334 300.328C181.091 308.867 180.85 317.403 180.612 325.936C180.589 326.82 180.557 327.697 180.534 328.581C180.416 332.815 180.298 337.049 180.181 341.283C180.047 345.877 179.917 350.472 179.788 355.066C179.694 358.509 179.597 361.955 179.498 365.404C178.792 390.394 178.085 415.383 177.379 440.373C177.349 441.92 176.72 443.396 175.622 444.49C174.525 445.585 173.045 446.213 171.493 446.242C169.936 446.23 168.446 445.608 167.345 444.509C166.244 443.411 165.62 441.926 165.608 440.373C166 426.317 166.398 412.26 166.8 398.204C167.154 385.494 167.512 372.784 167.876 360.074C167.993 355.887 168.111 351.698 168.229 347.505C168.409 341.197 168.587 334.889 168.762 328.581C168.786 327.697 168.817 326.82 168.841 325.936C168.857 325.161 168.88 324.394 168.904 323.619C169.249 311.371 169.594 299.12 169.94 286.867C170.081 282.046 170.217 277.222 170.348 272.396C170.505 266.894 170.662 261.395 170.818 255.898C170.889 253.48 170.952 251.069 171.023 248.651C171.052 247.103 171.682 245.628 172.779 244.533C173.877 243.439 175.357 242.811 176.908 242.781C178.465 242.794 179.955 243.416 181.056 244.514C182.157 245.612 182.781 247.098 182.794 248.651Z" fill="white"/>
<path d="M505.668 250.279C499.496 273.586 492.12 296.559 483.568 319.105C481.208 325.324 478.794 331.531 476.214 337.663L476.807 336.261C475.655 339.182 474.184 341.967 472.421 344.566C472.301 344.734 472.178 344.9 472.054 345.064C472.664 344.286 472.78 344.133 472.402 344.603C472.202 344.838 472.005 345.074 471.799 345.304C471.25 345.917 470.66 346.493 470.034 347.028C469.877 347.163 469.717 347.294 469.554 347.423L470.29 346.852C470.205 347.053 469.605 347.32 469.419 347.434C468.814 347.798 468.183 348.116 467.531 348.387L468.937 347.796C467.869 348.225 466.755 348.53 465.617 348.704L467.182 348.494C466.063 348.648 464.93 348.661 463.809 348.53L465.373 348.74C464.456 348.614 463.558 348.373 462.701 348.022L464.107 348.614C463.65 348.415 463.21 348.181 462.79 347.913C462.577 347.774 461.922 347.28 462.778 347.932C463.668 348.61 462.892 347.99 462.709 347.81C462.557 347.66 462.419 347.497 462.27 347.344C461.578 346.636 463.052 348.563 462.582 347.735C462.33 347.32 462.1 346.892 461.892 346.454L462.486 347.856C462.216 347.188 462.024 346.492 461.914 345.781L462.125 347.341C462.012 346.456 462.011 345.561 462.122 344.676L461.912 346.237C462.056 345.249 462.318 344.282 462.693 343.357L462.099 344.759C462.36 344.136 462.67 343.535 463.024 342.96C463.187 342.663 463.378 342.382 463.595 342.121C463.634 342.134 462.6 343.305 463.149 342.714C463.292 342.559 463.426 342.396 463.572 342.243C463.804 341.997 464.053 341.772 464.298 341.54C465.118 340.762 463.151 342.296 464.097 341.68C464.782 341.231 465.504 340.838 466.254 340.507L464.848 341.098C466.105 340.584 467.422 340.231 468.768 340.05L467.204 340.26C468.889 340.066 470.593 340.086 472.274 340.319L470.709 340.11C472.837 340.432 474.918 341.015 476.902 341.847L475.496 341.255C479.726 343.066 483.472 345.755 487.211 348.391C490.823 351 494.629 353.33 498.595 355.362C507.127 359.593 516.312 362.364 525.765 363.559C539.323 365.215 553.08 363.45 565.775 358.424C578.47 353.398 589.696 345.274 598.423 334.796C599.488 333.669 600.101 332.192 600.147 330.645C600.136 329.091 599.517 327.602 598.423 326.495C596.264 324.518 592.185 323.96 590.099 326.495C588.123 328.901 585.999 331.182 583.738 333.325C582.682 334.323 581.599 335.291 580.487 336.228C579.852 336.763 579.208 337.288 578.556 337.802C578.247 338.045 577.285 338.693 578.762 337.648C578.424 337.887 578.099 338.149 577.765 338.395C572.823 342.028 567.467 345.066 561.809 347.446L563.215 346.854C557.144 349.394 550.768 351.136 544.246 352.037L545.811 351.827C539.103 352.707 532.307 352.697 525.601 351.798L527.165 352.007C520.461 351.089 513.904 349.308 507.658 346.709L509.064 347.3C503.038 344.641 497.318 341.337 492.006 337.446C489.242 335.405 486.327 333.575 483.285 331.972C479.742 330.168 475.906 329.005 471.955 328.538C464.548 327.668 457 330.546 452.927 336.928C449.18 342.801 449.228 351.206 454.476 356.2C459.882 361.344 468.067 361.301 474.437 358.083C480.572 354.984 484.257 348.546 486.848 342.476C492.68 328.815 497.843 314.838 502.653 300.79C507.412 286.892 511.728 272.854 515.601 258.674C516.08 256.918 516.553 255.16 517.019 253.4C517.804 250.435 516.029 246.889 512.908 246.18C511.404 245.794 509.808 246.005 508.457 246.77C507.106 247.535 506.106 248.793 505.668 250.279Z" fill="white"/>
<path d="M564.394 248.651L562.275 323.621L560.168 398.202L558.976 440.373C558.99 441.926 559.614 443.411 560.715 444.509C561.816 445.607 563.305 446.23 564.862 446.243C566.414 446.213 567.893 445.585 568.991 444.491C570.088 443.396 570.718 441.921 570.748 440.373L572.866 365.402L574.974 290.822L576.165 248.651C576.152 247.098 575.528 245.613 574.427 244.515C573.326 243.417 571.837 242.794 570.28 242.781C568.728 242.811 567.248 243.439 566.151 244.533C565.054 245.627 564.424 247.103 564.394 248.651Z" fill="white"/>
<path opacity="0.2" d="M360.671 419.441H362.498V336.449H405.133V334.631H362.498V299.613H395.424C394.941 299.001 394.444 298.396 393.933 297.8H362.498V274.671C361.894 274.413 361.284 274.166 360.671 273.932V297.8H324.845V268.165C324.231 268.193 323.626 268.235 323.017 268.287V297.8H294.436V275.689C293.822 275.96 293.217 276.246 292.618 276.545V297.8H268.591V299.613H292.618V334.631H268.591V336.449H292.618V419.441H294.436V336.449C298.189 336.449 301.906 337.185 305.374 338.618C308.842 340.05 311.993 342.149 314.647 344.796C317.302 347.443 319.407 350.586 320.843 354.044C322.279 357.503 323.018 361.21 323.017 364.953V419.441H324.845V336.449H360.671V419.441ZM294.436 334.631V299.613H323.017V334.631H294.436ZM324.845 334.631V299.613H325.562C330.172 299.613 334.738 300.519 338.998 302.279C343.258 304.039 347.128 306.619 350.388 309.871C353.649 313.122 356.235 316.983 357.999 321.231C359.763 325.48 360.671 330.033 360.671 334.631H324.845Z" fill="black"/>
<path d="M349.509 394.557C347.208 404.793 341.697 414.032 333.775 420.932C333.194 421.433 332.613 421.918 332.009 422.396C330.542 422.529 329.085 422.664 327.638 422.803C326.437 422.912 325.252 423.03 324.075 423.139L323.863 423.163L323.714 421.879L323.118 416.682C320.804 412.915 319.37 408.677 318.922 404.282C318.473 399.887 319.022 395.448 320.528 391.294C322.6 385.721 326.351 380.799 330.039 375.915C335.132 369.169 340.084 362.501 340.265 354.275C342.771 357.473 344.854 360.98 346.464 364.708C344.945 365.421 343.58 366.423 342.446 367.658C342.125 368.01 341.803 368.503 342.023 368.926C342.211 369.286 342.682 369.372 343.09 369.419C344.071 369.521 345.06 369.623 346.041 369.724C346.825 369.81 347.61 369.889 348.395 369.975C349.344 373.083 349.988 376.275 350.318 379.507C350.846 384.535 350.574 389.615 349.509 394.557Z" fill="#FFF37A"/>
<path d="M375.564 374.044C370.933 377.402 368.226 382.231 366.123 387.553C363.967 388.241 362.028 389.476 360.496 391.137C360.174 391.489 359.853 391.982 360.072 392.405C360.261 392.765 360.732 392.851 361.14 392.898C362.121 393 363.109 393.102 364.09 393.203C361.987 399.496 360.057 406.007 356.337 411.321C353.863 414.83 350.638 417.746 346.896 419.86C345.876 420.44 344.822 420.96 343.741 421.417C339.755 421.723 335.844 422.049 332.009 422.396C330.542 422.529 329.085 422.664 327.638 422.803C326.437 422.912 325.252 423.03 324.075 423.139C324.067 422.709 324.067 422.278 324.075 421.848C324.323 410.381 328.553 399.356 336.043 390.652C336.396 390.245 336.757 389.846 337.126 389.447C340.92 385.405 345.382 382.043 350.318 379.507C358.094 375.475 366.81 373.589 375.564 374.044Z" fill="#FFEB82"/>
<path d="M328.996 418.788L328.093 421.449L327.638 422.802C326.437 422.912 325.252 423.029 324.075 423.139L323.863 423.163C322.56 423.296 321.266 423.429 319.971 423.562C319.633 423.17 319.296 422.771 318.966 422.364C310.775 412.472 306.843 399.748 308.03 386.974C309.216 374.199 315.425 362.412 325.299 354.189C324.263 359.597 325.472 364.778 327.457 369.92C327.245 370.006 327.041 370.092 326.845 370.186C325.326 370.899 323.961 371.901 322.827 373.136C322.506 373.489 322.184 373.982 322.403 374.404C322.592 374.764 323.063 374.85 323.471 374.897C324.452 374.999 325.441 375.101 326.421 375.203C327.206 375.289 327.991 375.367 328.776 375.453C329.145 375.492 329.513 375.531 329.882 375.57C329.937 375.688 329.984 375.797 330.039 375.915C332.276 380.752 334.685 385.612 336.043 390.652C336.383 391.916 336.65 393.199 336.843 394.495C337.447 398.872 337.056 403.328 335.697 407.534C334.339 411.739 332.048 415.586 328.996 418.788Z" fill="#FFEB82"/>
<path d="M407.989 305.275C401.233 292.133 390.766 281.075 378.456 272.949C366.107 264.834 351.936 259.893 337.207 258.564C335.276 258.389 333.341 258.287 331.4 258.257C329.108 258.223 294.622 268.143 283.069 276.244C271.523 284.245 262.025 294.842 255.341 307.179C248.669 319.583 245.387 333.519 245.825 347.589C246.397 361.743 250.353 375.555 257.363 387.875C264.278 400.156 274.096 410.565 285.964 418.199C298 425.859 310.091 446.167 324.303 446.884C338.621 447.606 354.951 428.449 368.01 422.633C381.07 416.767 392.36 407.592 400.755 396.019C408.913 384.678 414.191 371.533 416.136 357.711C418.155 343.558 417.214 328.963 412.368 315.436C411.124 311.96 409.662 308.566 407.989 305.275C406.592 302.531 402.498 301.521 399.936 303.169C398.616 303.98 397.659 305.267 397.266 306.762C396.873 308.258 397.073 309.847 397.824 311.2C398.644 312.811 399.407 314.449 400.112 316.113L399.519 314.711C402.187 321.109 404.001 327.829 404.915 334.698L404.705 333.137C405.677 340.59 405.66 348.137 404.653 355.585L404.863 354.025C403.846 361.472 401.853 368.754 398.935 375.684L399.528 374.282C398.027 377.817 396.277 381.243 394.292 384.533C393.286 386.195 392.219 387.818 391.09 389.402C390.594 390.097 390.083 390.78 389.568 391.461C388.897 392.35 390.484 390.3 389.79 391.172C389.672 391.321 389.554 391.47 389.435 391.618C389.079 392.062 388.718 392.502 388.351 392.938C385.904 395.85 383.234 398.567 380.365 401.065C379.65 401.687 378.924 402.295 378.185 402.889C377.817 403.186 377.454 403.494 377.07 403.77C377.085 403.759 378.31 402.831 377.584 403.37C377.356 403.539 377.13 403.711 376.902 403.88C375.38 405.005 373.817 406.072 372.214 407.082C368.522 409.402 364.65 411.42 360.634 413.119L362.04 412.527C355.112 415.436 347.831 417.423 340.383 418.437L341.948 418.228C334.504 419.231 326.959 419.244 319.512 418.267L321.077 418.477C314.308 417.571 307.687 415.786 301.383 413.167L302.789 413.759C299.137 412.221 295.616 410.392 292.26 408.288C290.6 407.244 288.982 406.136 287.408 404.963C287.183 404.796 286.96 404.627 286.737 404.458C286.018 403.917 287.253 404.857 287.263 404.863C286.845 404.565 286.443 404.245 286.058 403.905C285.298 403.287 284.549 402.656 283.813 402.01C280.865 399.421 278.113 396.62 275.578 393.628C274.943 392.88 274.322 392.121 273.715 391.35C273.452 391.017 272.972 390.34 274.032 391.764C273.893 391.577 273.748 391.393 273.607 391.207C273.269 390.759 272.935 390.308 272.606 389.854C271.453 388.264 270.358 386.635 269.319 384.966C266.973 381.189 264.925 377.236 263.194 373.142L263.787 374.544C260.955 367.824 259.019 360.763 258.027 353.54L258.237 355.101C257.342 348.444 257.33 341.698 258.199 335.037L257.989 336.598C258.88 330.148 260.62 323.843 263.164 317.846L262.571 319.249C264.171 315.495 266.059 311.869 268.217 308.404C269.298 306.67 270.443 304.979 271.653 303.329C271.927 302.954 272.205 302.582 272.486 302.212C272.741 301.877 273.44 301.043 272.247 302.516C272.364 302.371 272.476 302.223 272.592 302.077C273.255 301.238 273.935 300.413 274.632 299.6C277.267 296.524 280.121 293.641 283.172 290.975C283.944 290.301 284.727 289.641 285.523 288.996C285.884 288.702 286.248 288.412 286.614 288.125C286.761 288.01 286.909 287.897 287.055 287.781C285.487 289.025 286.619 288.12 286.975 287.854C288.615 286.629 290.298 285.465 292.025 284.362C295.865 281.914 299.904 279.791 304.1 278.017L302.694 278.609C308.784 276.058 335.765 270.039 340.672 270.696L339.107 270.487C346.32 271.491 353.37 273.433 360.076 276.264L358.67 275.673C362.069 277.112 365.372 278.766 368.558 280.626C370.151 281.557 371.712 282.539 373.241 283.571C373.965 284.059 374.681 284.559 375.39 285.07C375.744 285.325 376.096 285.583 376.447 285.843C376.641 285.988 376.834 286.135 377.028 286.28C377.844 286.89 375.905 285.397 376.76 286.072C379.621 288.313 382.339 290.732 384.896 293.313C386.152 294.589 387.365 295.905 388.535 297.262C389.135 297.958 389.723 298.664 390.298 299.381C390.584 299.737 391.558 301.025 390.364 299.447C390.656 299.833 390.951 300.216 391.239 300.605C393.719 303.952 395.921 307.496 397.824 311.2C399.231 313.937 403.307 314.958 405.877 313.306C407.198 312.495 408.154 311.208 408.548 309.712C408.941 308.217 408.741 306.627 407.989 305.275Z" fill="white"/>
<path d="M339.408 401.065C338.8 401.093 338.199 400.934 337.685 400.61C337.171 400.285 336.77 399.811 336.535 399.251C336.3 398.692 336.244 398.074 336.373 397.481C336.503 396.888 336.812 396.35 337.258 395.938C337.333 395.642 337.387 395.429 337.461 395.132C337.435 395.068 337.408 395.003 337.381 394.939C334.65 388.445 317.224 406.548 316.471 412.651C316.139 415.349 316.279 418.084 316.884 420.734C311.24 408.454 308.309 395.108 308.29 381.6C308.289 378.21 308.478 374.823 308.855 371.454C309.168 368.693 309.601 365.951 310.156 363.228C313.181 348.458 319.677 334.613 329.109 322.832C334.503 323.132 339.231 322.312 339.687 311.886C339.768 310.032 341.148 308.426 341.452 306.599C340.937 306.666 340.413 306.708 339.898 306.742C339.738 306.75 339.569 306.759 339.409 306.767L339.348 306.77C338.782 306.795 338.221 306.657 337.732 306.371C337.243 306.086 336.847 305.666 336.592 305.161C336.337 304.657 336.234 304.089 336.295 303.528C336.355 302.966 336.577 302.434 336.935 301.995C337.157 301.722 337.379 301.449 337.602 301.177C337.94 300.756 338.286 300.343 338.624 299.922C338.663 299.882 338.699 299.84 338.733 299.796C339.122 299.316 339.51 298.844 339.898 298.364C339.19 297.267 338.236 296.348 337.112 295.679C333.22 293.405 327.851 294.98 325.04 298.491C322.22 302.002 321.688 306.927 322.667 311.314C323.63 315.046 325.223 318.588 327.378 321.788C327.167 322.057 326.948 322.318 326.737 322.587C322.878 327.535 319.516 332.848 316.697 338.45C317.494 332.237 307.741 309.799 303.969 305.047C299.439 299.338 290.149 301.829 289.351 309.066C289.343 309.136 289.336 309.206 289.328 309.276C289.888 309.591 290.437 309.926 290.973 310.28C291.647 310.729 292.17 311.371 292.472 312.121C292.774 312.871 292.842 313.695 292.666 314.484C292.491 315.273 292.081 315.992 291.489 316.544C290.898 317.097 290.152 317.459 289.351 317.582L289.269 317.595C281.77 328.273 305.81 356.065 311.827 349.825C308.995 357.829 307.219 366.167 306.542 374.628C306.16 379.621 306.182 384.635 306.61 389.624L306.584 389.447C305.248 378.582 282.311 362.428 275.613 363.774C271.754 364.549 267.954 364.373 268.54 368.254C268.549 368.316 268.559 368.378 268.568 368.44C269.608 368.862 270.62 369.349 271.599 369.897C272.159 370.212 272.708 370.547 273.244 370.9C273.918 371.349 274.441 371.991 274.743 372.741C275.045 373.492 275.113 374.315 274.937 375.105C274.762 375.894 274.352 376.612 273.76 377.165C273.168 377.718 272.423 378.079 271.622 378.203L271.54 378.215C271.481 378.224 271.43 378.232 271.371 378.241C267.958 389.954 293.272 408.857 308.661 402.842H308.67C310.195 409.452 312.405 415.885 315.263 422.039H338.818C338.902 421.778 338.978 421.508 339.054 421.247C336.874 421.384 334.685 421.254 332.536 420.86C334.284 418.722 336.032 416.566 337.779 414.428C337.818 414.388 337.855 414.345 337.889 414.301C338.775 413.207 339.67 412.121 340.557 411.026L340.557 411.025C340.605 407.67 340.218 404.323 339.409 401.066L339.408 401.065ZM312.435 348.149L312.447 348.132L312.435 348.166V348.149ZM307.218 395.054L307.015 394.6C307.024 394.271 307.024 393.943 307.015 393.606C307.015 393.513 306.998 393.421 306.998 393.328C307.074 393.909 307.142 394.49 307.226 395.071L307.218 395.054Z" fill="#FFF37A"/>
<path d="M74.7479 352.185C79.5154 352.185 83.3803 348.331 83.3803 343.577C83.3803 338.822 79.5154 334.968 74.7479 334.968C69.9803 334.968 66.1155 338.822 66.1155 343.577C66.1155 348.331 69.9803 352.185 74.7479 352.185Z" fill="white"/>
<path d="M178.337 446.101C183.104 446.101 186.969 442.247 186.969 437.493C186.969 432.738 183.104 428.884 178.337 428.884C173.569 428.884 169.704 432.738 169.704 437.493C169.704 442.247 173.569 446.101 178.337 446.101Z" fill="white"/>
<path d="M571.503 446.101C576.271 446.101 580.136 442.247 580.136 437.493C580.136 432.738 576.271 428.884 571.503 428.884C566.736 428.884 562.871 432.738 562.871 437.493C562.871 442.247 566.736 446.101 571.503 446.101Z" fill="white"/>
<path d="M592.692 336.533C597.46 336.533 601.324 332.678 601.324 327.924C601.324 323.169 597.46 319.315 592.692 319.315C587.924 319.315 584.06 323.169 584.06 327.924C584.06 332.678 587.924 336.533 592.692 336.533Z" fill="white"/>
<path d="M567.579 256.704C572.347 256.704 576.212 252.85 576.212 248.095C576.212 243.34 572.347 239.486 567.579 239.486C562.812 239.486 558.947 243.34 558.947 248.095C558.947 252.85 562.812 256.704 567.579 256.704Z" fill="white"/>
<path d="M207.373 327.924C207.368 330.123 206.515 332.236 204.991 333.825C203.468 335.415 201.389 336.359 199.187 336.463C196.984 336.567 194.826 335.822 193.158 334.384C191.491 332.945 190.442 330.921 190.229 328.733C190.015 326.544 190.654 324.357 192.012 322.625C193.37 320.893 195.345 319.747 197.526 319.426C199.707 319.105 201.929 319.633 203.731 320.9C205.534 322.167 206.778 324.076 207.208 326.233C207.319 326.79 207.374 327.356 207.373 327.924Z" fill="white"/>
<path d="M380.021 281.748C384.789 281.748 388.653 277.894 388.653 273.139C388.653 268.385 384.789 264.53 380.021 264.53C375.254 264.53 371.389 268.385 371.389 273.139C371.389 277.894 375.254 281.748 380.021 281.748Z" fill="white"/>
<path d="M294.482 273.14C294.476 275.339 293.624 277.451 292.1 279.041C290.576 280.63 288.498 281.575 286.295 281.679C284.093 281.783 281.935 281.038 280.267 279.599C278.6 278.16 277.551 276.137 277.337 273.949C277.124 271.76 277.762 269.573 279.121 267.841C280.479 266.108 282.453 264.963 284.635 264.642C286.816 264.321 289.038 264.849 290.84 266.116C292.642 267.383 293.887 269.292 294.317 271.449C294.428 272.006 294.483 272.572 294.482 273.14Z" fill="white"/>
<path d="M183.045 248.095C183.04 250.294 182.187 252.407 180.663 253.997C179.14 255.586 177.061 256.53 174.859 256.634C172.656 256.738 170.498 255.994 168.83 254.555C167.163 253.116 166.114 251.093 165.901 248.904C165.687 246.715 166.326 244.529 167.684 242.796C169.043 241.064 171.017 239.919 173.198 239.598C175.379 239.277 177.601 239.804 179.403 241.071C181.206 242.338 182.45 244.248 182.88 246.405C182.991 246.961 183.046 247.528 183.045 248.095Z" fill="white"/>
<path d="M470.269 355.316C475.036 355.316 478.901 351.461 478.901 346.707C478.901 341.952 475.036 338.098 470.269 338.098C465.501 338.098 461.636 341.952 461.636 346.707C461.636 351.461 465.501 355.316 470.269 355.316Z" fill="white"/>
<path d="M334.505 277.053C341.439 277.053 347.061 271.446 347.061 264.53C347.061 257.615 341.439 252.008 334.505 252.008C327.57 252.008 321.948 257.615 321.948 264.53C321.948 271.446 327.57 277.053 334.505 277.053Z" fill="white"/>
<path d="M674.066 446.759L0.934398 447C0.81169 447 0.690181 446.976 0.576814 446.929C0.463447 446.882 0.360446 446.814 0.273678 446.727C0.186911 446.641 0.118075 446.538 0.0711168 446.425C0.0241587 446.312 0 446.191 0 446.068C0 445.946 0.0241587 445.825 0.0711168 445.712C0.118075 445.598 0.186911 445.496 0.273678 445.409C0.360446 445.323 0.463447 445.254 0.576814 445.207C0.690181 445.16 0.81169 445.136 0.934398 445.136L674.066 444.896C674.313 444.896 674.55 444.995 674.725 445.17C674.899 445.344 674.997 445.581 674.997 445.828C674.997 446.074 674.899 446.311 674.725 446.486C674.55 446.66 674.313 446.759 674.066 446.759Z" fill="#CACACA"/>
</g>
<defs>
<clipPath id="clip0_186_10316">
<rect width="675" height="447" fill="white"/>
</clipPath>
</defs>
</svg>
