<svg width="800" height="800" viewBox="0 0 800 800" fill="none" xmlns="http://www.w3.org/2000/svg">
<g style="mix-blend-mode:darken" clip-path="url(#clip0_496_1160)">
<path d="M401 400H1V800H401V400Z" fill="#4E4E4E"/>
<path d="M385.5 514.5L519.5 530.45M464.5 840L366.5 768.5L261 730L155.5 669L21 699.5M21 699.5L148.5 782L64.25 839.75L21 699.5ZM21 699.5L-97.5 646.5L52 591L-14.5 514.5L64.25 439.75L-33.5 368.5" stroke="#FFF37A" stroke-opacity="0.2" stroke-width="0.65"/>
<path d="M-14.5 514.5L119.5 530.5L196 591L302.5 646.5L155.25 668.75L51.75 590.75M186 852.5L148.5 782" stroke="#FFF37A" stroke-opacity="0.2" stroke-width="0.65"/>
<path d="M261 730L290 821L366.5 768.5L421 699.5L302.5 646.5L261 730ZM261 730L148.5 782L155.5 669L196 591L270.5 534.5L385.5 514.5L289.75 420.75L186 452.5L148.5 382L64.25 439.75L119.5 530.5L52 591L21 699.5L-33.5 768.5L64.5 840" stroke="#FFF37A" stroke-opacity="0.2" stroke-width="0.65"/>
<path d="M261 330L290.25 421.25L366.5 368.5M302.5 646.5L270.5 534.5M270.5 534.5L119.5 530.5L186 452.5M270.5 534.5L452 591M196 591H52" stroke="#FFF37A" stroke-opacity="0.2" stroke-width="0.65"/>
<path d="M-110 421L64.25 439.75L186 452.5L270.5 534.5L289.75 420.75M289.75 420.75L464.5 440L385.5 514.5L452 591L302.5 646.5L366.5 768.5M289.75 420.75L148.5 382M290 821L148.5 782M21 299.5L64.5 440M52 591L-129.5 534.5" stroke="#FFF37A" stroke-opacity="0.2" stroke-width="0.65"/>
<path d="M385.5 518C387.433 518 389 516.433 389 514.5C389 512.567 387.433 511 385.5 511C383.567 511 382 512.567 382 514.5C382 516.433 383.567 518 385.5 518Z" fill="#FFF37A" fill-opacity="0.2"/>
<path d="M270.5 538C272.433 538 274 536.433 274 534.5C274 532.567 272.433 531 270.5 531C268.567 531 267 532.567 267 534.5C267 536.433 268.567 538 270.5 538Z" fill="#FFF37A" fill-opacity="0.2"/>
<path d="M302.5 650C304.433 650 306 648.433 306 646.5C306 644.567 304.433 643 302.5 643C300.567 643 299 644.567 299 646.5C299 648.433 300.567 650 302.5 650Z" fill="#FFF37A" fill-opacity="0.2"/>
<path d="M366.5 772C368.433 772 370 770.433 370 768.5C370 766.567 368.433 765 366.5 765C364.567 765 363 766.567 363 768.5C363 770.433 364.567 772 366.5 772Z" fill="#FFF37A" fill-opacity="0.2"/>
<path d="M261 733.5C262.933 733.5 264.5 731.933 264.5 730C264.5 728.067 262.933 726.5 261 726.5C259.067 726.5 257.5 728.067 257.5 730C257.5 731.933 259.067 733.5 261 733.5Z" fill="#FFF37A" fill-opacity="0.2"/>
<path d="M155.5 672.5C157.433 672.5 159 670.933 159 669C159 667.067 157.433 665.5 155.5 665.5C153.567 665.5 152 667.067 152 669C152 670.933 153.567 672.5 155.5 672.5Z" fill="#FFF37A" fill-opacity="0.2"/>
<path d="M148.5 785.5C150.433 785.5 152 783.933 152 782C152 780.067 150.433 778.5 148.5 778.5C146.567 778.5 145 780.067 145 782C145 783.933 146.567 785.5 148.5 785.5Z" fill="#FFF37A" fill-opacity="0.2"/>
<path d="M21 703C22.933 703 24.5 701.433 24.5 699.5C24.5 697.567 22.933 696 21 696C19.067 696 17.5 697.567 17.5 699.5C17.5 701.433 19.067 703 21 703Z" fill="#FFF37A" fill-opacity="0.2"/>
<path d="M52 594.5C53.933 594.5 55.5 592.933 55.5 591C55.5 589.067 53.933 587.5 52 587.5C50.067 587.5 48.5 589.067 48.5 591C48.5 592.933 50.067 594.5 52 594.5Z" fill="#FFF37A" fill-opacity="0.2"/>
<path d="M64.5 443.5C66.433 443.5 68 441.933 68 440C68 438.067 66.433 436.5 64.5 436.5C62.567 436.5 61 438.067 61 440C61 441.933 62.567 443.5 64.5 443.5Z" fill="#FFF37A" fill-opacity="0.2"/>
<path d="M186 456C187.933 456 189.5 454.433 189.5 452.5C189.5 450.567 187.933 449 186 449C184.067 449 182.5 450.567 182.5 452.5C182.5 454.433 184.067 456 186 456Z" fill="#FFF37A" fill-opacity="0.2"/>
<path d="M290 424.5C291.933 424.5 293.5 422.933 293.5 421C293.5 419.067 291.933 417.5 290 417.5C288.067 417.5 286.5 419.067 286.5 421C286.5 422.933 288.067 424.5 290 424.5Z" fill="#FFF37A" fill-opacity="0.2"/>
<path d="M119.5 534C121.433 534 123 532.433 123 530.5C123 528.567 121.433 527 119.5 527C117.567 527 116 528.567 116 530.5C116 532.433 117.567 534 119.5 534Z" fill="#FFF37A" fill-opacity="0.2"/>
<path d="M196 594.5C197.933 594.5 199.5 592.933 199.5 591C199.5 589.067 197.933 587.5 196 587.5C194.067 587.5 192.5 589.067 192.5 591C192.5 592.933 194.067 594.5 196 594.5Z" fill="#FFF37A" fill-opacity="0.2"/>
</g>
<g style="mix-blend-mode:darken" clip-path="url(#clip1_496_1160)">
<path d="M800 400H400V800H800V400Z" fill="#4E4E4E"/>
<path d="M784.5 514.5L918.5 530.45M863.5 840L765.5 768.5L660 730L554.5 669L420 699.5M420 699.5L547.5 782L463.25 839.75L420 699.5ZM420 699.5L301.5 646.5L451 591L384.5 514.5L463.25 439.75L365.5 368.5" stroke="#FFF37A" stroke-opacity="0.2" stroke-width="0.65"/>
<path d="M384.5 514.5L518.5 530.5L595 591L701.5 646.5L554.25 668.75L450.75 590.75M585 852.5L547.5 782" stroke="#FFF37A" stroke-opacity="0.2" stroke-width="0.65"/>
<path d="M660 730L689 821L765.5 768.5L820 699.5L701.5 646.5L660 730ZM660 730L547.5 782L554.5 669L595 591L669.5 534.5L784.5 514.5L688.75 420.75L585 452.5L547.5 382L463.25 439.75L518.5 530.5L451 591L420 699.5L365.5 768.5L463.5 840" stroke="#FFF37A" stroke-opacity="0.2" stroke-width="0.65"/>
<path d="M660 330L689.25 421.25L765.5 368.5M701.5 646.5L669.5 534.5M669.5 534.5L518.5 530.5L585 452.5M669.5 534.5L851 591M595 591H451" stroke="#FFF37A" stroke-opacity="0.2" stroke-width="0.65"/>
<path d="M289 421L463.25 439.75L585 452.5L669.5 534.5L688.75 420.75M688.75 420.75L863.5 440L784.5 514.5L851 591L701.5 646.5L765.5 768.5M688.75 420.75L547.5 382M689 821L547.5 782M420 299.5L463.5 440M451 591L269.5 534.5" stroke="#FFF37A" stroke-opacity="0.2" stroke-width="0.65"/>
<path d="M784.5 518C786.433 518 788 516.433 788 514.5C788 512.567 786.433 511 784.5 511C782.567 511 781 512.567 781 514.5C781 516.433 782.567 518 784.5 518Z" fill="#FFF37A" fill-opacity="0.2"/>
<path d="M669.5 538C671.433 538 673 536.433 673 534.5C673 532.567 671.433 531 669.5 531C667.567 531 666 532.567 666 534.5C666 536.433 667.567 538 669.5 538Z" fill="#FFF37A" fill-opacity="0.2"/>
<path d="M701.5 650C703.433 650 705 648.433 705 646.5C705 644.567 703.433 643 701.5 643C699.567 643 698 644.567 698 646.5C698 648.433 699.567 650 701.5 650Z" fill="#FFF37A" fill-opacity="0.2"/>
<path d="M765.5 772C767.433 772 769 770.433 769 768.5C769 766.567 767.433 765 765.5 765C763.567 765 762 766.567 762 768.5C762 770.433 763.567 772 765.5 772Z" fill="#FFF37A" fill-opacity="0.2"/>
<path d="M660 733.5C661.933 733.5 663.5 731.933 663.5 730C663.5 728.067 661.933 726.5 660 726.5C658.067 726.5 656.5 728.067 656.5 730C656.5 731.933 658.067 733.5 660 733.5Z" fill="#FFF37A" fill-opacity="0.2"/>
<path d="M554.5 672.5C556.433 672.5 558 670.933 558 669C558 667.067 556.433 665.5 554.5 665.5C552.567 665.5 551 667.067 551 669C551 670.933 552.567 672.5 554.5 672.5Z" fill="#FFF37A" fill-opacity="0.2"/>
<path d="M547.5 785.5C549.433 785.5 551 783.933 551 782C551 780.067 549.433 778.5 547.5 778.5C545.567 778.5 544 780.067 544 782C544 783.933 545.567 785.5 547.5 785.5Z" fill="#FFF37A" fill-opacity="0.2"/>
<path d="M420 703C421.933 703 423.5 701.433 423.5 699.5C423.5 697.567 421.933 696 420 696C418.067 696 416.5 697.567 416.5 699.5C416.5 701.433 418.067 703 420 703Z" fill="#FFF37A" fill-opacity="0.2"/>
<path d="M451 594.5C452.933 594.5 454.5 592.933 454.5 591C454.5 589.067 452.933 587.5 451 587.5C449.067 587.5 447.5 589.067 447.5 591C447.5 592.933 449.067 594.5 451 594.5Z" fill="#FFF37A" fill-opacity="0.2"/>
<path d="M463.5 443.5C465.433 443.5 467 441.933 467 440C467 438.067 465.433 436.5 463.5 436.5C461.567 436.5 460 438.067 460 440C460 441.933 461.567 443.5 463.5 443.5Z" fill="#FFF37A" fill-opacity="0.2"/>
<path d="M585 456C586.933 456 588.5 454.433 588.5 452.5C588.5 450.567 586.933 449 585 449C583.067 449 581.5 450.567 581.5 452.5C581.5 454.433 583.067 456 585 456Z" fill="#FFF37A" fill-opacity="0.2"/>
<path d="M689 424.5C690.933 424.5 692.5 422.933 692.5 421C692.5 419.067 690.933 417.5 689 417.5C687.067 417.5 685.5 419.067 685.5 421C685.5 422.933 687.067 424.5 689 424.5Z" fill="#FFF37A" fill-opacity="0.2"/>
<path d="M518.5 534C520.433 534 522 532.433 522 530.5C522 528.567 520.433 527 518.5 527C516.567 527 515 528.567 515 530.5C515 532.433 516.567 534 518.5 534Z" fill="#FFF37A" fill-opacity="0.2"/>
<path d="M595 594.5C596.933 594.5 598.5 592.933 598.5 591C598.5 589.067 596.933 587.5 595 587.5C593.067 587.5 591.5 589.067 591.5 591C591.5 592.933 593.067 594.5 595 594.5Z" fill="#FFF37A" fill-opacity="0.2"/>
</g>
<g style="mix-blend-mode:darken" clip-path="url(#clip2_496_1160)">
<path d="M400 0H0V400H400V0Z" fill="#4E4E4E"/>
<path d="M384.5 114.5L518.5 130.45M463.5 440L365.5 368.5L260 330L154.5 269L20 299.5M20 299.5L147.5 382L63.25 439.75L20 299.5ZM20 299.5L-98.5 246.5L51 191L-15.5 114.5L63.25 39.75L-34.5 -31.5" stroke="#FFF37A" stroke-opacity="0.2" stroke-width="0.65"/>
<path d="M-15.5 114.5L118.5 130.5L195 191L301.5 246.5L154.25 268.75L50.75 190.75M185 452.5L147.5 382" stroke="#FFF37A" stroke-opacity="0.2" stroke-width="0.65"/>
<path d="M260 330L289 421L365.5 368.5L420 299.5L301.5 246.5L260 330ZM260 330L147.5 382L154.5 269L195 191L269.5 134.5L384.5 114.5L288.75 20.75L185 52.5L147.5 -18L63.25 39.75L118.5 130.5L51 191L20 299.5L-34.5 368.5L63.5 440" stroke="#FFF37A" stroke-opacity="0.2" stroke-width="0.65"/>
<path d="M260 -70L289.25 21.25L365.5 -31.5M301.5 246.5L269.5 134.5M269.5 134.5L118.5 130.5L185 52.5M269.5 134.5L451 191M195 191H51" stroke="#FFF37A" stroke-opacity="0.2" stroke-width="0.65"/>
<path d="M-111 21L63.25 39.75L185 52.5L269.5 134.5L288.75 20.75M288.75 20.75L463.5 40L384.5 114.5L451 191L301.5 246.5L365.5 368.5M288.75 20.75L147.5 -18M289 421L147.5 382M20 -100.5L63.5 40M51 191L-130.5 134.5" stroke="#FFF37A" stroke-opacity="0.2" stroke-width="0.65"/>
<path d="M384.5 118C386.433 118 388 116.433 388 114.5C388 112.567 386.433 111 384.5 111C382.567 111 381 112.567 381 114.5C381 116.433 382.567 118 384.5 118Z" fill="#FFF37A" fill-opacity="0.2"/>
<path d="M269.5 138C271.433 138 273 136.433 273 134.5C273 132.567 271.433 131 269.5 131C267.567 131 266 132.567 266 134.5C266 136.433 267.567 138 269.5 138Z" fill="#FFF37A" fill-opacity="0.2"/>
<path d="M301.5 250C303.433 250 305 248.433 305 246.5C305 244.567 303.433 243 301.5 243C299.567 243 298 244.567 298 246.5C298 248.433 299.567 250 301.5 250Z" fill="#FFF37A" fill-opacity="0.2"/>
<path d="M365.5 372C367.433 372 369 370.433 369 368.5C369 366.567 367.433 365 365.5 365C363.567 365 362 366.567 362 368.5C362 370.433 363.567 372 365.5 372Z" fill="#FFF37A" fill-opacity="0.2"/>
<path d="M260 333.5C261.933 333.5 263.5 331.933 263.5 330C263.5 328.067 261.933 326.5 260 326.5C258.067 326.5 256.5 328.067 256.5 330C256.5 331.933 258.067 333.5 260 333.5Z" fill="#FFF37A" fill-opacity="0.2"/>
<path d="M154.5 272.5C156.433 272.5 158 270.933 158 269C158 267.067 156.433 265.5 154.5 265.5C152.567 265.5 151 267.067 151 269C151 270.933 152.567 272.5 154.5 272.5Z" fill="#FFF37A" fill-opacity="0.2"/>
<path d="M147.5 385.5C149.433 385.5 151 383.933 151 382C151 380.067 149.433 378.5 147.5 378.5C145.567 378.5 144 380.067 144 382C144 383.933 145.567 385.5 147.5 385.5Z" fill="#FFF37A" fill-opacity="0.2"/>
<path d="M20 303C21.933 303 23.5 301.433 23.5 299.5C23.5 297.567 21.933 296 20 296C18.067 296 16.5 297.567 16.5 299.5C16.5 301.433 18.067 303 20 303Z" fill="#FFF37A" fill-opacity="0.2"/>
<path d="M51 194.5C52.933 194.5 54.5 192.933 54.5 191C54.5 189.067 52.933 187.5 51 187.5C49.067 187.5 47.5 189.067 47.5 191C47.5 192.933 49.067 194.5 51 194.5Z" fill="#FFF37A" fill-opacity="0.2"/>
<path d="M63.5 43.5C65.433 43.5 67 41.933 67 40C67 38.067 65.433 36.5 63.5 36.5C61.567 36.5 60 38.067 60 40C60 41.933 61.567 43.5 63.5 43.5Z" fill="#FFF37A" fill-opacity="0.2"/>
<path d="M185 56C186.933 56 188.5 54.433 188.5 52.5C188.5 50.567 186.933 49 185 49C183.067 49 181.5 50.567 181.5 52.5C181.5 54.433 183.067 56 185 56Z" fill="#FFF37A" fill-opacity="0.2"/>
<path d="M289 24.5C290.933 24.5 292.5 22.933 292.5 21C292.5 19.067 290.933 17.5 289 17.5C287.067 17.5 285.5 19.067 285.5 21C285.5 22.933 287.067 24.5 289 24.5Z" fill="#FFF37A" fill-opacity="0.2"/>
<path d="M118.5 134C120.433 134 122 132.433 122 130.5C122 128.567 120.433 127 118.5 127C116.567 127 115 128.567 115 130.5C115 132.433 116.567 134 118.5 134Z" fill="#FFF37A" fill-opacity="0.2"/>
<path d="M195 194.5C196.933 194.5 198.5 192.933 198.5 191C198.5 189.067 196.933 187.5 195 187.5C193.067 187.5 191.5 189.067 191.5 191C191.5 192.933 193.067 194.5 195 194.5Z" fill="#FFF37A" fill-opacity="0.2"/>
</g>
<g style="mix-blend-mode:darken" clip-path="url(#clip3_496_1160)">
<path d="M799 0H399V400H799V0Z" fill="#4E4E4E"/>
<path d="M783.5 114.5L917.5 130.45M862.5 440L764.5 368.5L659 330L553.5 269L419 299.5M419 299.5L546.5 382L462.25 439.75L419 299.5ZM419 299.5L300.5 246.5L450 191L383.5 114.5L462.25 39.75L364.5 -31.5" stroke="#FFF37A" stroke-opacity="0.2" stroke-width="0.65"/>
<path d="M383.5 114.5L517.5 130.5L594 191L700.5 246.5L553.25 268.75L449.75 190.75M584 452.5L546.5 382" stroke="#FFF37A" stroke-opacity="0.2" stroke-width="0.65"/>
<path d="M659 330L688 421L764.5 368.5L819 299.5L700.5 246.5L659 330ZM659 330L546.5 382L553.5 269L594 191L668.5 134.5L783.5 114.5L687.75 20.75L584 52.5L546.5 -18L462.25 39.75L517.5 130.5L450 191L419 299.5L364.5 368.5L462.5 440" stroke="#FFF37A" stroke-opacity="0.2" stroke-width="0.65"/>
<path d="M659 -70L688.25 21.25L764.5 -31.5M700.5 246.5L668.5 134.5M668.5 134.5L517.5 130.5L584 52.5M668.5 134.5L850 191M594 191H450" stroke="#FFF37A" stroke-opacity="0.2" stroke-width="0.65"/>
<path d="M288 21L462.25 39.75L584 52.5L668.5 134.5L687.75 20.75M687.75 20.75L862.5 40L783.5 114.5L850 191L700.5 246.5L764.5 368.5M687.75 20.75L546.5 -18M688 421L546.5 382M419 -100.5L462.5 40M450 191L268.5 134.5" stroke="#FFF37A" stroke-opacity="0.2" stroke-width="0.65"/>
<path d="M783.5 118C785.433 118 787 116.433 787 114.5C787 112.567 785.433 111 783.5 111C781.567 111 780 112.567 780 114.5C780 116.433 781.567 118 783.5 118Z" fill="#FFF37A" fill-opacity="0.2"/>
<path d="M668.5 138C670.433 138 672 136.433 672 134.5C672 132.567 670.433 131 668.5 131C666.567 131 665 132.567 665 134.5C665 136.433 666.567 138 668.5 138Z" fill="#FFF37A" fill-opacity="0.2"/>
<path d="M700.5 250C702.433 250 704 248.433 704 246.5C704 244.567 702.433 243 700.5 243C698.567 243 697 244.567 697 246.5C697 248.433 698.567 250 700.5 250Z" fill="#FFF37A" fill-opacity="0.2"/>
<path d="M764.5 372C766.433 372 768 370.433 768 368.5C768 366.567 766.433 365 764.5 365C762.567 365 761 366.567 761 368.5C761 370.433 762.567 372 764.5 372Z" fill="#FFF37A" fill-opacity="0.2"/>
<path d="M659 333.5C660.933 333.5 662.5 331.933 662.5 330C662.5 328.067 660.933 326.5 659 326.5C657.067 326.5 655.5 328.067 655.5 330C655.5 331.933 657.067 333.5 659 333.5Z" fill="#FFF37A" fill-opacity="0.2"/>
<path d="M553.5 272.5C555.433 272.5 557 270.933 557 269C557 267.067 555.433 265.5 553.5 265.5C551.567 265.5 550 267.067 550 269C550 270.933 551.567 272.5 553.5 272.5Z" fill="#FFF37A" fill-opacity="0.2"/>
<path d="M546.5 385.5C548.433 385.5 550 383.933 550 382C550 380.067 548.433 378.5 546.5 378.5C544.567 378.5 543 380.067 543 382C543 383.933 544.567 385.5 546.5 385.5Z" fill="#FFF37A" fill-opacity="0.2"/>
<path d="M419 303C420.933 303 422.5 301.433 422.5 299.5C422.5 297.567 420.933 296 419 296C417.067 296 415.5 297.567 415.5 299.5C415.5 301.433 417.067 303 419 303Z" fill="#FFF37A" fill-opacity="0.2"/>
<path d="M450 194.5C451.933 194.5 453.5 192.933 453.5 191C453.5 189.067 451.933 187.5 450 187.5C448.067 187.5 446.5 189.067 446.5 191C446.5 192.933 448.067 194.5 450 194.5Z" fill="#FFF37A" fill-opacity="0.2"/>
<path d="M462.5 43.5C464.433 43.5 466 41.933 466 40C466 38.067 464.433 36.5 462.5 36.5C460.567 36.5 459 38.067 459 40C459 41.933 460.567 43.5 462.5 43.5Z" fill="#FFF37A" fill-opacity="0.2"/>
<path d="M584 56C585.933 56 587.5 54.433 587.5 52.5C587.5 50.567 585.933 49 584 49C582.067 49 580.5 50.567 580.5 52.5C580.5 54.433 582.067 56 584 56Z" fill="#FFF37A" fill-opacity="0.2"/>
<path d="M688 24.5C689.933 24.5 691.5 22.933 691.5 21C691.5 19.067 689.933 17.5 688 17.5C686.067 17.5 684.5 19.067 684.5 21C684.5 22.933 686.067 24.5 688 24.5Z" fill="#FFF37A" fill-opacity="0.2"/>
<path d="M517.5 134C519.433 134 521 132.433 521 130.5C521 128.567 519.433 127 517.5 127C515.567 127 514 128.567 514 130.5C514 132.433 515.567 134 517.5 134Z" fill="#FFF37A" fill-opacity="0.2"/>
<path d="M594 194.5C595.933 194.5 597.5 192.933 597.5 191C597.5 189.067 595.933 187.5 594 187.5C592.067 187.5 590.5 189.067 590.5 191C590.5 192.933 592.067 194.5 594 194.5Z" fill="#FFF37A" fill-opacity="0.2"/>
</g>
<defs>
<clipPath id="clip0_496_1160">
<rect width="400" height="400" fill="white" transform="translate(1 400)"/>
</clipPath>
<clipPath id="clip1_496_1160">
<rect width="400" height="400" fill="white" transform="translate(400 400)"/>
</clipPath>
<clipPath id="clip2_496_1160">
<rect width="400" height="400" fill="white"/>
</clipPath>
<clipPath id="clip3_496_1160">
<rect width="400" height="400" fill="white" transform="translate(399)"/>
</clipPath>
</defs>
</svg>
