<?xml version="1.0" encoding="utf-8"?>
<!-- Generator: Adobe Illustrator 27.7.0, SVG Export Plug-In . SVG Version: 6.00 Build 0)  -->
<svg version="1.1" id="Calque_1" xmlns="http://www.w3.org/2000/svg" xmlns:xlink="http://www.w3.org/1999/xlink" x="0px" y="0px"
	 viewBox="0 0 676 468.9" style="enable-background:new 0 0 676 468.9;" xml:space="preserve">
<style type="text/css">
	.st0{opacity:1;clip-path:url(#SVGID_00000072240860656062994550000002998811175476056504_);}
	.st1{fill:#FFF37A;}
	.st2{fill:#FFED68;}
	.st3{fill:#FFEA5E;}
	.st4{fill:#FFE755;}
	.st5{fill:#FFE34C;}
	.st6{fill:#FFE85F;}
	.st7{fill:#FFED73;}
	.st8{fill:#FFF186;}
	.st9{fill:#FFF59A;}
	.st10{fill:#FFF8AD;}
</style>
<g>
	<defs>
		<rect id="SVGID_1_" width="676" height="469"/>
	</defs>
	<clipPath id="SVGID_00000183242611991567709900000003132452332426985151_">
		<use xlink:href="#SVGID_1_"  style="overflow:visible;"/>
	</clipPath>
	<g style="opacity:1;clip-path:url(#SVGID_00000183242611991567709900000003132452332426985151_);">
		<path class="st1" d="M676,0H0v469h676V0z"/>
		<path class="st2" d="M676,0H0v422c20.7-9.8,42-16.3,63.7-19.6c47.3-7.4,95.5-1.4,141.7,11.4c1.4,0.4,2.9,0.8,4.3,1.2
			c49.3,14.1,97.9,34.6,146.9,54.1H676V0z"/>
		<path class="st3" d="M202.1,340.6c1.4,0.5,2.7,1,4,1.5c82.9,30.8,164.2,78.3,250.8,103.5c73.6,21.5,147.7,17.1,219.1-6V0H0v337
			c22.1-10.3,45-16.2,68.1-18.1C113.4,315.1,158.7,324.9,202.1,340.6z"/>
		<path class="st4" d="M0,0v251.7c23.5-10.8,48-16,72.4-16.2c43.4-0.5,85.9,13.3,126.5,31.9c1.3,0.6,2.5,1.2,3.8,1.8
			c77.6,36.3,154.5,85.7,237.6,112.6c78.9,25.6,159,20.2,235.7-7.4V0H0z"/>
		<path class="st5" d="M76.8,152.1c41.5,3.5,81.1,20.6,118.8,42.3c1.2,0.6,2.3,1.3,3.5,2c72.2,42,144.8,92.9,224.5,121.8
			c84,30.4,170.4,23.9,252.4-8.7V0H0v166C24.9,154.5,51,149.9,76.8,152.1z"/>
		<path class="st6" d="M676,0H0v79.9c26.3-12.3,54-16.1,81.2-11.3c39.5,7.1,76.3,28,111.2,52.5c1.1,0.8,2.2,1.5,3.3,2.3
			c66.9,47.5,135.1,100.2,211.4,130.9c88.9,35.8,182,28.7,269-9.7L676,0L676,0z"/>
		<path class="st7" d="M192.2,50.6c61.6,53.2,125.4,107.3,198.2,139.9c88.1,39.5,182.2,35.6,269.5-3.1c5.4-2.4,10.7-4.9,16.1-7.6V0
			H121.7c23.7,12.5,45.9,29.7,67.5,48.1C190.2,48.9,191.2,49.8,192.2,50.6z"/>
		<path class="st8" d="M676,0H210.4c49.9,50.3,102.9,96.4,163.4,126.7c81,40.6,169,43.8,251.4,12.4c17.2-6.6,34.3-14.8,50.8-24.4
			L676,0L676,0z"/>
		<path class="st9" d="M590.4,90.8c19.9-6.2,39.5-14.8,58.6-25.7c9.2-5.2,18.2-11,27-17.3V0H271.8c26.6,24.4,54.8,45.8,85.4,63
			C431.1,104.4,513,115,590.4,90.8z"/>
		<path class="st10" d="M555.7,42.4c31.8-7.4,62.9-21.7,91.6-42.4H341.8C408.5,41.6,483.6,59.2,555.7,42.4z"/>
	</g>
</g>
</svg>
