<svg width="600" height="310" viewBox="0 0 600 310" fill="none" xmlns="http://www.w3.org/2000/svg">
<g style="mix-blend-mode:darken" opacity="1" clip-path="url(#clip0_232_10182)">
<path d="M1094.21 -40.9832H0V378.305H1094.21V-40.9832Z" fill="#A4A4A4"/>
<path d="M1094.21 -40.9832H0V336.271C33.5102 327.466 68.0462 321.701 103.061 318.714C179.587 312.057 257.618 317.456 332.366 328.881C334.692 329.248 337.017 329.615 339.342 329.93C419.219 342.508 497.797 360.852 577.059 378.253H1094.21V-40.9832Z" fill="#B6B6B6"/>
<path d="M327.169 263.525C329.357 263.944 331.546 264.416 333.666 264.835C467.843 292.351 599.491 334.804 739.549 357.393C858.682 376.575 978.566 372.697 1094.21 352.047V-40.9832H0V260.328C35.767 251.103 72.8334 245.81 110.173 244.133C183.554 240.674 256.934 249.479 327.169 263.525Z" fill="#C0C0C0"/>
<path d="M0 -40.9832V184.07C38.0238 174.426 77.6205 169.762 117.217 169.552C187.52 169.133 256.182 181.449 321.903 198.116C323.955 198.64 325.938 199.164 327.99 199.688C453.55 232.183 578.085 276.261 712.605 300.37C840.285 323.273 969.949 318.399 1094.14 293.766V-40.9832H0Z" fill="#C9C9C9"/>
<path d="M124.33 94.971C191.487 98.1157 255.567 113.42 316.706 132.759C318.62 133.336 320.467 133.965 322.382 134.541C439.325 172.068 556.748 217.613 685.728 243.399C821.684 270.548 961.606 264.783 1094.21 235.642V-40.9832H0V107.445C40.349 97.1723 82.4761 93.0318 124.33 94.971Z" fill="#D2D2D2"/>
<path d="M1094.21 -40.9832H0V30.4531C42.6058 19.4992 87.3317 16.04 131.442 20.3901C195.453 26.7319 254.883 45.3902 311.508 67.3504C313.286 68.0318 314.996 68.7131 316.774 69.3945C425.101 111.9 535.411 158.965 658.92 186.376C802.877 218.347 953.536 212.057 1094.28 177.676V-40.9832H1094.21Z" fill="#CFCFCF"/>
<path d="M311.098 4.24755C410.808 51.7843 514.005 100.16 631.975 129.353C774.633 164.678 926.933 161.219 1068.22 126.575C1076.98 124.426 1085.59 122.172 1094.28 119.814V-40.9832H197.026C235.324 -29.8196 271.364 -14.4632 306.242 1.99388C307.883 2.72763 309.456 3.5138 311.098 4.24755Z" fill="#CBCBCB"/>
<path d="M1094.21 -40.9832H340.573C421.339 3.9855 507.098 45.233 605.098 72.3295C736.267 108.598 878.651 111.48 1012.01 83.3882C1039.91 77.5182 1067.47 70.1806 1094.28 61.5328V-40.9832H1094.21Z" fill="#C8C8C8"/>
<path d="M955.724 40.1491C988.004 34.5935 1019.74 26.8891 1050.51 17.1931C1065.35 12.5285 1079.92 7.3398 1094.21 1.73182V-40.9832H440.009C483.026 -19.1278 528.709 0.0022583 578.222 15.3063C697.833 52.3609 830.369 61.7948 955.724 40.1491Z" fill="#C4C4C4"/>
<path d="M899.509 -3.03757C951.006 -9.64136 1001.34 -22.4821 1047.77 -40.9832H553.329C661.177 -3.77133 782.839 11.952 899.509 -3.03757Z" fill="#C1C1C1"/>
</g>
<defs>
<clipPath id="clip0_232_10182">
<rect width="1094.21" height="419.288" fill="white" transform="translate(0 -40.9832)"/>
</clipPath>
</defs>
</svg>
